<svg height="512pt" viewBox="-6 0 512 512.0003" width="512pt" xmlns="http://www.w3.org/2000/svg"><path d="m120.171875 261.058594c0-19.828125-16.136719-35.960938-35.96875-35.960938-19.828125 0-35.960937 16.132813-35.960937 35.960938 0 19.832031 16.132812 35.964844 35.964843 35.964844 19.828125 0 35.964844-16.132813 35.964844-35.964844zm-56.929687 0c0-11.558594 9.402343-20.964844 20.964843-20.964844s20.964844 9.40625 20.964844 20.964844c0 11.5625-9.402344 20.96875-20.964844 20.96875s-20.964843-9.40625-20.964843-20.96875zm0 0"/><path d="m201.257812 389.917969c-19.832031 0-35.964843 16.132812-35.964843 35.964843 0 19.832032 16.132812 35.964844 35.964843 35.964844 19.832032 0 35.964844-16.132812 35.964844-35.964844 0-19.832031-16.132812-35.964843-35.964844-35.964843zm0 56.929687c-11.5625 0-20.964843-9.402344-20.964843-20.964844 0-11.558593 9.402343-20.964843 20.964843-20.964843s20.964844 9.40625 20.964844 20.964843c0 11.5625-9.40625 20.964844-20.964844 20.964844zm0 0"/><path d="m279.847656 430.558594c0 19.832031 16.132813 35.964844 35.964844 35.964844 19.828125 0 35.964844-16.132813 35.964844-35.964844 0-19.832032-16.136719-35.964844-35.964844-35.964844-19.832031 0-35.964844 16.132812-35.964844 35.964844zm56.929688 0c0 11.5625-9.40625 20.964844-20.964844 20.964844-11.5625 0-20.96875-9.402344-20.96875-20.964844 0-11.558594 9.40625-20.964844 20.96875-20.964844 11.558594 0 20.964844 9.40625 20.964844 20.964844zm0 0"/><path d="m136.945312 201.359375c9.144532 8.949219 11.6875 20.34375 16.429688 31.734375 3.769531 9.058594 9.886719 18.136719 19.96875 20.699219 11.875 3.019531 23.304688-4.5625 29.394531-14.339844 3.351563-5.378906 5.125-11.636719 5.625-17.921875.632813-7.957031-2.347656-14.679688-5.503906-21.785156-6.492187-14.617188-14.039063-28.902344-21.40625-43.09375-9.691406-18.492188-28.128906-42.292969-52.28125-34.078125-22.234375 7.5625-32.652344 40.207031-17.636719 58.890625 6.773438 8.433594 17.71875 12.359375 25.410156 19.894531zm-9.320312-60.882813c16.871094-15.621093 34.214844 11.042969 40.875 23.746094 5.382812 10.367188 10.546875 20.855469 15.785156 31.300782 4.023438 8.023437 10.371094 17.671874 8.960938 27-1.042969 6.902343-6.863282 18.136718-15.449219 16.917968-5.632813-.800781-8.921875-7.738281-10.789063-12.355468-3.789062-9.367188-6.105468-19.125-12.023437-27.523438-5.398437-7.664062-12.429687-13.796875-20.226563-18.9375-7.398437-4.875-13.71875-8.175781-14.890624-17.792969-.960938-7.910156 1.835937-16.875 7.757812-22.355469zm0 0"/><path d="m493.265625.691406c-.367187-.148437-.742187-.261718-1.117187-.363281-.089844-.027344-.179688-.050781-.269532-.070313-.195312-.046874-.386718-.082031-.582031-.117187-.011719-.003906-.027344-.003906-.042969-.007813-3.664062-.613281-7.445312.921876-9.699218 4.125-13.609376 19.324219-30.597657 33.761719-50.488282 42.902344-3.105468 1.425782-7.628906 2.730469-12.871094 4.238282-20.816406 6-54.363281 15.671874-57.835937 54.367187-.003906 0-.003906 0-.003906 0-.113281.039063-.222657.078125-.335938.121094-.117187.046875-.230469.101562-.347656.15625-.105469.046875-.210937.09375-.316406.148437-.113281.0625-.226563.128906-.34375.195313-.097657.058593-.195313.117187-.292969.175781-.113281.078125-.222656.15625-.335938.238281-.089843.066407-.179687.132813-.269531.203125-.109375.089844-.214843.183594-.320312.277344-.058594.058594-.125.105469-.1875.164062-.023438.023438-.042969.050782-.066407.074219-.027343.027344-.058593.050781-.085937.078125l-28.617187 29.171875v.003907l-70.5 71.871093c-11.46875-8.90625-16.914063-22.601562-20.585938-36.636719-4.308594-16.492187-6.597656-33.578124-13.117188-49.429687-7.121093-17.316406-19.390624-31.234375-36.746093-38.824219-18.351563-8.03125-39.167969-8.933594-58.527344-4.210937-41.835937 10.207031-71.84375 46.402343-93.46875 81.441406-23.867187 38.667969-38.785156 82.835937-35.417969 128.679687 3.453125 46.941407 23.140625 91.582032 53.652344 127.160157l-41.984375 42.804687c-8.128906 8.3125-8.339844 21.226563-.480469 29.402344 4.050782 4.214844 9.445313 6.335938 14.902344 6.335938 5.125 0 10.304688-1.875 14.46875-5.640626l46.085938-41.292968c28.652343 22.664062 61.511718 39.421875 96.445312 50.183594 38.933594 11.996093 80.816406 17.296874 121.179688 10.160156 35.261718-6.230469 68.570312-22.089844 96.199218-44.769532 28.832032-23.664062 50.175782-55.253906 62.871094-90.226562 14.828125-40.851562 17.429688-87.320312 1.253906-128.183594-1.488281-3.746094-5.023437-6.414062-9.226562-5.234375-3.578125 1-6.742188 5.425781-5.238282 9.222657 26.433594 66.769531.839844 146.992187-50.1875 194.964843-24.394531 22.933594-54.796874 39.242188-87.304687 47.167969-37.035156 9.03125-75.808594 5.71875-112.402344-3.828125-36.894531-9.621094-72.214843-26.058594-102.316406-49.558594l118.449219-106.136719c3.082031-2.761718 3.34375-7.503906.578125-10.589843-2.761719-3.082031-7.5-3.34375-10.589844-.578125l-175.828125 157.550781c-2.53125 2.289063-6.359375 2.3125-8.527344.058594-2.171875-2.257813-1.996094-6.082031.382813-8.511719l79.769531-81.324219c.015625-.015625.03125-.03125.050781-.050781l39.613281-40.386719c.035157-.035156.070313-.070312.105469-.105469l191.859375-195.59375 28.765625 28.410157-132.597656 118.8125c-3.085937 2.765625-3.347656 7.507812-.582031 10.589843 1.480468 1.652344 3.53125 2.496094 5.589844 2.496094 1.78125 0 3.566406-.632812 5-1.914062l118.222656-105.929688c15.425781-5.578125 30.734375-8.789062 46.738281-3.136718 13.179687 4.652343 23.90625 13.78125 32.414063 24.675781 2.511718 3.21875 7.960937 2.585937 10.605468 0 3.1875-3.117188 2.476563-7.429688 0-10.605469-10.148437-12.996094-23.433594-23.027344-39.03125-28.535156-9.148437-3.230469-18.320312-4.054688-27.421875-3.28125l26.410157-23.664063c.035156-.03125.0625-.066406.097656-.097656.03125-.03125.066406-.054687.097656-.085937.054688-.050782.101562-.113282.15625-.167969.097656-.097657.195312-.199219.289062-.304688.074219-.082031.140626-.171875.210938-.257812.089844-.109375.171875-.21875.253906-.332031.0625-.089844.125-.183594.183594-.277344.074219-.113282.148438-.226563.214844-.34375.054687-.097656.109375-.199219.160156-.296875.058594-.117188.117188-.234375.171875-.355469.046875-.101562.085937-.210938.128906-.316406.046875-.117188.09375-.238282.132813-.359375.035156-.105469.070312-.214844.101562-.328125.035156-.121094.066406-.242188.09375-.367188.027344-.109375.046875-.21875.070313-.332031.019531-.125.042969-.25.058593-.378906.015626-.109375.027344-.21875.035157-.328125.011719-.128906.019531-.257813.027343-.390625.003907-.109375.003907-.214844 0-.324219 0-.132812 0-.265625-.011718-.394531-.003906-.109375-.015625-.214844-.027344-.320313-.011719-.132812-.027344-.265625-.050781-.398437-.015625-.105469-.035157-.207031-.054688-.3125-.023437-.117188-.046875-.234375-.078125-.347657 15.34375-3.179687 29.90625-10.3125 42.003906-20.746093l3.140626-2.710938c10.605468-9.152343 19.066406-20.480469 24.464843-32.765625 8.601563-19.558594 12.324219-40.558594 15.046875-55.890625l.046875-.277343c1.023438-5.769532 1.621094-11.53125 2.195313-17.097657.460937-4.417969.890625-8.59375 1.523437-12.785156.652344-4.378906-1.726562-8.574219-5.785156-10.199219zm-104.152344 79.617188c9.496094-7.65625 22.660157-11.449219 33.234375-14.496094 5.820313-1.679688 10.851563-3.128906 14.980469-5.023438 10.332031-4.75 19.945313-10.753906 28.800781-17.964843-8.316406 15.082031-17.582031 27.675781-27.726562 37.625-8.398438 8.238281-16.886719 9.890625-25.871094 11.640625-12.441406 2.421875-26.285156 5.125-33.5625 26.742187l-3.859375-4.011719c-.496094-15.207031 4.09375-26.519531 14.003906-34.511718zm-372.296875 221.789062c-6.238281-42.191406 4.160156-83.675781 24.515625-120.6875 18.597657-33.816406 45.121094-71.21875 83.035157-84.722656 16.757812-5.964844 35.390624-6.988281 52.363281-1.285156 15.84375 5.328125 27.597656 16.976562 33.910156 32.316406 12.527344 30.441406 10.238281 69.761719 37.097656 91.726562l-110.933593 113.09375c-6.195313-4.71875-13.796876-7.335937-21.761719-7.335937-19.832031 0-35.96875 16.136719-35.96875 35.96875 0 8.238281 2.761719 16.039063 7.753906 22.316406l-22.191406 22.621094c-25.074219-29.453125-42.152344-65.652344-47.820313-104.011719zm80.660156 70.53125c-2.199218-3.355468-3.402343-7.3125-3.402343-11.457031 0-11.5625 9.40625-20.96875 20.96875-20.96875 3.988281 0 7.820312 1.125 11.113281 3.1875zm247.28125-230.671875 17.992188-18.347656 29.820312 30.988281-18.359374 16.449219zm101.214844-23.609375-3.140625 2.710938c-12.382812 10.6875-27.816406 17.257812-43.734375 18.691406l-7.972656-8.285156c3.984375-20.6875 11.386719-22.144532 24.277344-24.652344 9.75-1.902344 21.886718-4.265625 33.503906-15.65625 10.621094-10.417969 20.3125-23.367188 29.003906-38.6875-2.445312 12.234375-5.78125 25.648438-11.402344 38.433594-4.507812 10.257812-11.609374 19.746094-20.535156 27.445312zm0 0"/></svg>