<?xml version="1.0" encoding="iso-8859-1"?>
<!-- Generator: Adobe Illustrator 19.0.0, SVG Export Plug-In . SVG Version: 6.00 Build 0)  -->
<svg version="1.1" id="Capa_1" xmlns="http://www.w3.org/2000/svg" xmlns:xlink="http://www.w3.org/1999/xlink" x="0px" y="0px"
	 viewBox="0 0 407.205 407.205" style="enable-background:new 0 0 407.205 407.205;" xml:space="preserve">
<g>
	<g>
		<g>
			<circle cx="356" cy="194.603" r="12.4"/>
			<circle cx="356" cy="231.003" r="12.4"/>
			<path d="M358,148.203h-13.2v-48.8c0-19.6-16-36-36-36H98.4c-19.6,0-36,16-36,36v48.8H49.2c-27.2,0-49.2,22-49.2,49.2v97.2
				c0,27.2,22,49.2,49.2,49.2H358c27.2,0,49.2-22,49.2-49.2v-97.2C407.6,170.203,385.2,148.203,358,148.203z M76.8,99.403
				c0-12,9.6-21.6,21.6-21.6h210.4c12,0,21.6,9.6,21.6,21.6v48.8H76.8V99.403z M309.6,162.203v20.8c0,9.6-7.6,17.2-17.2,17.2H115.2
				c-9.6,0-17.2-7.6-17.2-17.2v-20.8H309.6z M312.8,330.203H94.4v-45.2h218.4V330.203z M358,330.203h-31.2v-52c0-4-3.2-7.2-7.2-7.2
				h-232c-4,0-7.2,3.2-7.2,7.2v52H49.2c-19.6,0-35.2-16-35.2-35.2v-97.6c0-19.6,16-35.2,35.2-35.2h34.4v20.8
				c0,17.2,14,31.2,31.2,31.2H292c17.2,0,31.2-14,31.2-31.2v-20.8h34.4c19.6,0,35.2,16,35.2,35.2v97.6h0.4
				C393.2,314.603,377.2,330.203,358,330.203z"/>
			<path d="M144.8,188.203h117.6c4,0,7.2-3.2,7.2-7.2s-3.2-7.2-7.2-7.2H144.8c-4,0-7.2,3.2-7.2,7.2
				C138,185.003,140.8,188.203,144.8,188.203z"/>
		</g>
	</g>
</g>
<g>
</g>
<g>
</g>
<g>
</g>
<g>
</g>
<g>
</g>
<g>
</g>
<g>
</g>
<g>
</g>
<g>
</g>
<g>
</g>
<g>
</g>
<g>
</g>
<g>
</g>
<g>
</g>
<g>
</g>
</svg>
